 <svg  version="1.0" xmlns="http://www.w3.org/2000/svg"  width="300.000000pt" height="212.000000pt" viewBox="0 0 300.000000 212.000000"  preserveAspectRatio="xMidYMid meet">  <g transform="translate(0.000000,212.000000) scale(0.100000,-0.100000)" fill="#e6e6e6" stroke="none"> <path d="M1213 1762 l-203 -117 0 -42 0 -43 86 0 86 0 120 70 120 70 120 -70 121 -70 83 0 84 0 0 44 0 43 -197 114 c-109 63 -202 115 -208 116 -5 2 -101 -50 -212 -115z m398 -24 c98 -56 181 -108 184 -117 8 -21 -13 -31 -67 -31 -47 0 -52 2 -248 107 -58 31 -78 27 -196 -43 -85 -51 -102 -58 -159 -60 -77 -4 -98 11 -60 44 14 12 27 22 29 22 5 0 116 63 156 89 58 37 156 89 169 90 8 1 94 -45 192 -101z"/> <path d="M1350 1559 c0 -24 4 -29 25 -29 20 0 25 5 25 24 0 17 -7 25 -25 28 -22 5 -25 2 -25 -23z"/> <path d="M1420 1555 c0 -21 5 -25 30 -25 25 0 30 4 30 25 0 21 -5 25 -30 25 -25 0 -30 -4 -30 -25z"/> <path d="M1350 1485 c0 -20 5 -25 25 -25 20 0 25 5 25 25 0 20 -5 25 -25 25 -20 0 -25 -5 -25 -25z"/> <path d="M1420 1485 c0 -21 5 -25 30 -25 25 0 30 4 30 25 0 21 -5 25 -30 25 -25 0 -30 -4 -30 -25z"/> <path d="M1013 1365 c7 -45 40 -91 80 -113 27 -14 70 -18 285 -22 252 -5 254 -5 273 -29 26 -32 24 -77 -6 -106 l-24 -25 -238 0 c-210 0 -243 -3 -279 -19 -48 -22 -83 -66 -91 -116 l-6 -35 291 0 c173 0 312 4 342 11 191 41 256 291 110 423 -67 60 -105 66 -443 66 l-300 0 6 -35z m648 -19 c19 -8 47 -24 63 -37 36 -28 76 -112 76 -160 0 -54 -48 -139 -98 -174 l-44 -30 -299 -3 c-314 -3 -321 -2 -286 39 35 43 42 44 304 49 l255 5 34 37 c48 53 48 103 0 156 l-34 37 -254 5 c-139 3 -261 9 -270 13 -18 9 -48 50 -48 67 0 17 559 13 601 -4z"/> <path d="M795 693 c-31 -8 -65 -44 -65 -70 0 -34 34 -63 74 -63 54 0 96 -11 96 -26 0 -35 -103 -40 -135 -7 -13 13 -16 11 -25 -13 -6 -15 -9 -28 -8 -29 12 -10 112 -23 141 -18 65 10 96 63 64 107 -14 18 -72 35 -124 36 -22 0 -33 5 -33 15 0 36 90 44 124 10 12 -13 16 -11 29 9 16 23 15 24 -35 40 -51 16 -67 18 -103 9z"/> <path d="M1995 691 c-62 -4 -105 -10 -97 -14 16 -11 17 -178 1 -194 -9 -9 18 -13 105 -15 l116 -3 0 25 c0 25 0 25 -80 22 l-80 -4 0 31 c0 27 3 31 23 27 82 -17 84 -17 79 12 -3 26 -6 27 -53 24 -47 -4 -49 -3 -49 23 l0 27 78 -3 79 -4 0 28 c0 15 -3 26 -6 25 -3 -1 -55 -4 -116 -7z"/> <path d="M1066 676 c3 -8 -17 -58 -44 -110 l-49 -96 41 0 c23 0 36 4 30 8 -7 4 -8 15 -3 30 7 19 16 22 58 22 40 0 52 -4 61 -20 6 -11 8 -25 5 -30 -4 -6 12 -10 40 -10 43 0 45 1 30 16 -25 26 -97 175 -91 190 4 11 -5 14 -39 14 -34 0 -43 -3 -39 -14z m57 -90 l16 -34 -35 1 c-38 1 -39 4 -22 42 15 33 21 32 41 -9z"/> <path d="M1275 580 l0 -110 40 1 c22 0 34 3 28 6 -8 3 -13 23 -13 49 l0 44 65 0 65 0 0 -44 c0 -26 -5 -46 -12 -49 -7 -3 5 -6 27 -6 l40 -1 0 110 0 110 -40 -1 c-22 0 -34 -3 -27 -6 6 -2 12 -21 12 -42 l0 -36 -66 0 -66 0 4 43 c3 41 2 42 -27 42 l-30 0 0 -110z"/> <path d="M1565 580 l0 -110 30 0 c30 0 30 0 27 49 -7 98 0 102 42 22 l38 -74 41 74 42 74 3 -64 c2 -45 -1 -67 -10 -72 -8 -6 2 -9 27 -9 l40 0 0 110 0 110 -43 0 c-25 0 -41 -4 -37 -10 3 -5 -9 -37 -26 -72 l-31 -62 -33 64 c-18 36 -31 68 -28 73 2 4 -15 7 -39 7 l-43 0 0 -110z"/> <path d="M740 340 c0 -27 4 -50 9 -50 5 0 7 9 4 20 -3 11 -1 20 5 20 6 0 14 -9 17 -20 3 -11 11 -20 16 -20 12 0 12 17 -1 25 -6 4 -5 13 2 24 16 26 3 51 -27 51 -23 0 -25 -3 -25 -50z"/> <path d="M968 383 c-2 -5 -1 -28 3 -53 l6 -45 1 53 c2 48 -2 63 -10 45z"/> <path d="M1040 340 l0 -50 33 1 c30 2 30 2 5 6 -32 5 -38 33 -8 33 11 0 20 4 20 9 0 5 -9 7 -20 4 -14 -4 -20 0 -20 11 0 10 9 16 25 16 14 0 25 5 25 10 0 6 -13 10 -30 10 -29 0 -30 -1 -30 -50z"/> <path d="M1459 388 c-5 -26 -3 -98 3 -98 4 0 8 23 8 50 0 28 -2 50 -5 50 -3 0 -5 -1 -6 -2z"/> <path d="M1177 368 c-7 -21 4 -78 17 -78 9 0 12 26 7 78 0 6 -5 12 -10 12 -5 0 -11 -6 -14 -12z"/> <path d="M1298 363 c-6 -30 4 -73 16 -73 9 0 12 26 7 78 -2 18 -19 15 -23 -5z"/> <path d="M1778 363 c-6 -23 5 -66 17 -70 9 -3 11 25 6 75 -2 18 -18 15 -23 -5z"/> <path d="M2098 363 c-6 -23 5 -66 17 -70 9 -3 11 25 6 75 -2 18 -18 15 -23 -5z"/> <path d="M826 344 c-9 -8 -16 -19 -16 -24 0 -11 29 -40 39 -40 5 0 14 7 22 16 11 13 9 14 -14 9 -17 -5 -27 -3 -27 4 0 6 11 11 25 11 27 0 32 9 13 28 -16 16 -23 15 -42 -4z"/> <path d="M900 350 c-12 -8 -10 -10 10 -10 25 -1 25 -1 3 -10 -41 -17 -23 -53 20 -42 20 5 23 42 5 60 -14 14 -19 15 -38 2z"/> <path d="M1114 348 c-4 -6 3 -20 17 -31 24 -20 24 -20 2 -14 -24 5 -33 -8 -10 -16 34 -12 51 24 20 42 -10 6 -12 11 -5 11 17 0 15 20 -2 20 -8 0 -18 -5 -22 -12z"/> <path d="M1235 351 c-3 -6 2 -11 12 -12 14 0 14 -2 -4 -9 -41 -17 -23 -53 20 -42 13 3 17 13 15 36 -3 31 -30 48 -43 27z"/> <path d="M1352 348 c-27 -27 1 -73 36 -61 20 8 14 22 -8 16 -11 -3 -20 0 -20 6 0 6 11 11 25 11 14 0 25 4 25 8 0 12 -22 32 -35 32 -6 0 -16 -5 -23 -12z"/> <path d="M1503 353 c-15 -6 -18 -63 -3 -63 6 0 10 11 10 25 0 34 27 32 33 -2 4 -21 4 -19 3 7 -1 34 -15 45 -43 33z"/> <path d="M1565 343 c4 -10 10 -26 12 -35 3 -10 11 -18 18 -18 7 0 15 8 18 18 2 9 8 25 12 35 4 9 3 17 -3 17 -5 0 -13 -12 -17 -27 l-7 -28 -14 28 c-16 30 -30 37 -19 10z"/> <path d="M1640 341 c-13 -25 -13 -27 5 -45 9 -8 22 -13 30 -10 22 9 18 23 -5 17 -11 -3 -20 0 -20 6 0 6 11 11 25 11 27 0 32 9 13 28 -18 18 -36 15 -48 -7z"/> <path d="M1714 349 c-4 -7 4 -20 17 -31 l24 -20 -22 5 c-26 6 -31 -8 -7 -17 34 -13 48 25 17 43 -17 10 -17 10 0 11 10 0 15 5 12 10 -8 13 -32 13 -41 -1z"/> <path d="M1837 352 c-12 -20 -16 -62 -7 -62 5 0 10 11 10 25 0 16 6 25 15 25 9 0 15 -9 15 -25 0 -14 4 -25 8 -25 5 0 8 10 8 21 -1 12 5 24 12 26 7 3 12 -5 12 -21 0 -14 5 -26 10 -26 14 0 12 47 -2 57 -17 10 -76 14 -81 5z"/> <path d="M1952 348 c-27 -27 1 -73 36 -61 20 8 14 22 -8 16 -11 -3 -20 0 -20 6 0 6 11 11 25 11 23 0 24 2 15 20 -12 23 -30 26 -48 8z"/> <path d="M2033 353 c-15 -6 -18 -63 -3 -63 6 0 10 11 10 25 0 14 5 25 10 25 6 0 10 -11 10 -25 0 -14 5 -25 10 -25 14 0 13 43 -2 58 -13 13 -16 13 -35 5z"/> </g> </svg> 